<svg id="visual" viewBox="0 0 1920 1080" width="1920" height="1080" xmlns="http://www.w3.org/2000/svg" xmlns:xlink="http://www.w3.org/1999/xlink" version="1.1"><g stroke-width="1" stroke-linejoin="bevel"><path d="M1026.7 500L1034.7 370L891.3 500Z" fill="#00101c" stroke="#00101c"></path><path d="M1034.7 370L880.3 356L891.3 500Z" fill="#112e42" stroke="#112e42"></path><path d="M1240 396L1053.7 206L1034.7 370Z" fill="#112e42" stroke="#112e42"></path><path d="M1034.7 370L1053.7 206L880.3 356Z" fill="#0c2435" stroke="#0c2435"></path><path d="M1053.7 206L819.3 205L880.3 356Z" fill="#19435d" stroke="#19435d"></path><path d="M880.3 356L665 375L891.3 500Z" fill="#15384f" stroke="#15384f"></path><path d="M1026.7 500L1240 396L1034.7 370Z" fill="#081a28" stroke="#081a28"></path><path d="M665 558L862.3 712L891.3 500Z" fill="#246688" stroke="#246688"></path><path d="M891.3 500L862.3 712L1026.7 500Z" fill="#297ea6" stroke="#297ea6"></path><path d="M1026.7 500L1299 568L1240 396Z" fill="#19435d" stroke="#19435d"></path><path d="M819.3 205L665 375L880.3 356Z" fill="#246688" stroke="#246688"></path><path d="M862.3 712L1050.7 735L1026.7 500Z" fill="#1d4e6b" stroke="#1d4e6b"></path><path d="M665 375L665 558L891.3 500Z" fill="#205a7a" stroke="#205a7a"></path><path d="M1050.7 735L1299 568L1026.7 500Z" fill="#246688" stroke="#246688"></path><path d="M1495.3 388L1278 163L1240 396Z" fill="#297ea6" stroke="#297ea6"></path><path d="M1240 396L1278 163L1053.7 206Z" fill="#112e42" stroke="#112e42"></path><path d="M814.3 0L636 143L819.3 205Z" fill="#081a28" stroke="#081a28"></path><path d="M1050.7 735L1250 742L1299 568Z" fill="#1d4e6b" stroke="#1d4e6b"></path><path d="M1052.7 0L819.3 205L1053.7 206Z" fill="#1d4e6b" stroke="#1d4e6b"></path><path d="M819.3 205L636 143L665 375Z" fill="#277297" stroke="#277297"></path><path d="M449.7 697L631 747L665 558Z" fill="#112e42" stroke="#112e42"></path><path d="M1278 163L1052.7 0L1053.7 206Z" fill="#112e42" stroke="#112e42"></path><path d="M631 747L854.3 867L862.3 712Z" fill="#19435d" stroke="#19435d"></path><path d="M862.3 712L854.3 867L1050.7 735Z" fill="#277297" stroke="#277297"></path><path d="M1050.7 735L1074.7 883L1250 742Z" fill="#297ea6" stroke="#297ea6"></path><path d="M1052.7 0L814.3 0L819.3 205Z" fill="#1d4e6b" stroke="#1d4e6b"></path><path d="M665 558L631 747L862.3 712Z" fill="#246688" stroke="#246688"></path><path d="M441.7 370L665 558L665 375Z" fill="#205a7a" stroke="#205a7a"></path><path d="M854.3 867L1074.7 883L1050.7 735Z" fill="#1d4e6b" stroke="#1d4e6b"></path><path d="M636 143L441.7 370L665 375Z" fill="#205a7a" stroke="#205a7a"></path><path d="M1278 163L1257 0L1052.7 0Z" fill="#205a7a" stroke="#205a7a"></path><path d="M1525.3 516L1495.3 388L1299 568Z" fill="#1d4e6b" stroke="#1d4e6b"></path><path d="M1299 568L1495.3 388L1240 396Z" fill="#205a7a" stroke="#205a7a"></path><path d="M1278 163L1516.3 0L1257 0Z" fill="#297ea6" stroke="#297ea6"></path><path d="M814.3 0L628 0L636 143Z" fill="#0c2435" stroke="#0c2435"></path><path d="M636 143L390.7 158L441.7 370Z" fill="#19435d" stroke="#19435d"></path><path d="M441.7 370L419.7 538L665 558Z" fill="#081a28" stroke="#081a28"></path><path d="M1074.7 883L1283 901L1250 742Z" fill="#15384f" stroke="#15384f"></path><path d="M1474.3 684L1525.3 516L1299 568Z" fill="#297ea6" stroke="#297ea6"></path><path d="M1285 1080L1283 901L1074.7 883Z" fill="#297ea6" stroke="#297ea6"></path><path d="M1474.3 684L1299 568L1250 742Z" fill="#15384f" stroke="#15384f"></path><path d="M631 747L669 925L854.3 867Z" fill="#277297" stroke="#277297"></path><path d="M854.3 867L1034.7 1080L1074.7 883Z" fill="#15384f" stroke="#15384f"></path><path d="M393.7 902L669 925L631 747Z" fill="#19435d" stroke="#19435d"></path><path d="M1283 901L1474.3 684L1250 742Z" fill="#297ea6" stroke="#297ea6"></path><path d="M419.7 538L449.7 697L665 558Z" fill="#00101c" stroke="#00101c"></path><path d="M1681.7 347L1511.3 212L1495.3 388Z" fill="#1d4e6b" stroke="#1d4e6b"></path><path d="M1495.3 388L1511.3 212L1278 163Z" fill="#081a28" stroke="#081a28"></path><path d="M421.7 0L390.7 158L636 143Z" fill="#112e42" stroke="#112e42"></path><path d="M235.3 377L244.3 551L419.7 538Z" fill="#246688" stroke="#246688"></path><path d="M875.3 1080L1034.7 1080L854.3 867Z" fill="#246688" stroke="#246688"></path><path d="M669 925L875.3 1080L854.3 867Z" fill="#1d4e6b" stroke="#1d4e6b"></path><path d="M628 0L421.7 0L636 143Z" fill="#15384f" stroke="#15384f"></path><path d="M1724.7 187L1516.3 0L1511.3 212Z" fill="#0c2435" stroke="#0c2435"></path><path d="M1511.3 212L1516.3 0L1278 163Z" fill="#1d4e6b" stroke="#1d4e6b"></path><path d="M436.7 1080L671 1080L669 925Z" fill="#00101c" stroke="#00101c"></path><path d="M669 925L671 1080L875.3 1080Z" fill="#19435d" stroke="#19435d"></path><path d="M1504.3 1080L1532.3 860L1283 901Z" fill="#112e42" stroke="#112e42"></path><path d="M1283 901L1532.3 860L1474.3 684Z" fill="#00101c" stroke="#00101c"></path><path d="M1474.3 684L1672.7 701L1525.3 516Z" fill="#1d4e6b" stroke="#1d4e6b"></path><path d="M1525.3 516L1681.7 347L1495.3 388Z" fill="#19435d" stroke="#19435d"></path><path d="M419.7 538L244.3 551L449.7 697Z" fill="#081a28" stroke="#081a28"></path><path d="M449.7 697L393.7 902L631 747Z" fill="#00101c" stroke="#00101c"></path><path d="M235.3 377L419.7 538L441.7 370Z" fill="#112e42" stroke="#112e42"></path><path d="M235.3 377L441.7 370L390.7 158Z" fill="#19435d" stroke="#19435d"></path><path d="M181.3 216L235.3 377L390.7 158Z" fill="#00101c" stroke="#00101c"></path><path d="M1034.7 1080L1285 1080L1074.7 883Z" fill="#19435d" stroke="#19435d"></path><path d="M1733.7 537L1681.7 347L1525.3 516Z" fill="#246688" stroke="#246688"></path><path d="M227.3 732L393.7 902L449.7 697Z" fill="#277297" stroke="#277297"></path><path d="M1532.3 860L1672.7 701L1474.3 684Z" fill="#0c2435" stroke="#0c2435"></path><path d="M1672.7 701L1733.7 537L1525.3 516Z" fill="#19435d" stroke="#19435d"></path><path d="M0 575L227.3 732L244.3 551Z" fill="#246688" stroke="#246688"></path><path d="M244.3 551L227.3 732L449.7 697Z" fill="#00101c" stroke="#00101c"></path><path d="M1681.7 347L1724.7 187L1511.3 212Z" fill="#297ea6" stroke="#297ea6"></path><path d="M1920 338L1724.7 187L1681.7 347Z" fill="#205a7a" stroke="#205a7a"></path><path d="M174.3 0L181.3 216L390.7 158Z" fill="#246688" stroke="#246688"></path><path d="M235.3 377L0 575L244.3 551Z" fill="#19435d" stroke="#19435d"></path><path d="M224.3 1080L436.7 1080L393.7 902Z" fill="#112e42" stroke="#112e42"></path><path d="M393.7 902L436.7 1080L669 925Z" fill="#205a7a" stroke="#205a7a"></path><path d="M1532.3 860L1672.7 939L1672.7 701Z" fill="#112e42" stroke="#112e42"></path><path d="M1285 1080L1504.3 1080L1283 901Z" fill="#19435d" stroke="#19435d"></path><path d="M1504.3 1080L1672.7 939L1532.3 860Z" fill="#205a7a" stroke="#205a7a"></path><path d="M1920 731L1920 501L1733.7 537Z" fill="#205a7a" stroke="#205a7a"></path><path d="M1920 149L1728.7 0L1724.7 187Z" fill="#00101c" stroke="#00101c"></path><path d="M1724.7 187L1728.7 0L1516.3 0Z" fill="#1d4e6b" stroke="#1d4e6b"></path><path d="M0 900L218.3 919L227.3 732Z" fill="#297ea6" stroke="#297ea6"></path><path d="M227.3 732L218.3 919L393.7 902Z" fill="#0c2435" stroke="#0c2435"></path><path d="M421.7 0L174.3 0L390.7 158Z" fill="#19435d" stroke="#19435d"></path><path d="M0 144L0 365L181.3 216Z" fill="#297ea6" stroke="#297ea6"></path><path d="M181.3 216L0 365L235.3 377Z" fill="#15384f" stroke="#15384f"></path><path d="M1920 731L1733.7 537L1672.7 701Z" fill="#297ea6" stroke="#297ea6"></path><path d="M1733.7 537L1920 338L1681.7 347Z" fill="#19435d" stroke="#19435d"></path><path d="M1920 501L1920 338L1733.7 537Z" fill="#246688" stroke="#246688"></path><path d="M0 365L0 575L235.3 377Z" fill="#15384f" stroke="#15384f"></path><path d="M218.3 919L224.3 1080L393.7 902Z" fill="#277297" stroke="#277297"></path><path d="M0 1080L224.3 1080L218.3 919Z" fill="#19435d" stroke="#19435d"></path><path d="M1504.3 1080L1701.7 1080L1672.7 939Z" fill="#277297" stroke="#277297"></path><path d="M1672.7 939L1920 731L1672.7 701Z" fill="#00101c" stroke="#00101c"></path><path d="M174.3 0L0 144L181.3 216Z" fill="#246688" stroke="#246688"></path><path d="M1920 338L1920 149L1724.7 187Z" fill="#00101c" stroke="#00101c"></path><path d="M0 575L0 720L227.3 732Z" fill="#0c2435" stroke="#0c2435"></path><path d="M1920 912L1920 731L1672.7 939Z" fill="#00101c" stroke="#00101c"></path><path d="M174.3 0L0 0L0 144Z" fill="#277297" stroke="#277297"></path><path d="M1920 149L1920 0L1728.7 0Z" fill="#1d4e6b" stroke="#1d4e6b"></path><path d="M0 720L0 900L227.3 732Z" fill="#081a28" stroke="#081a28"></path><path d="M1701.7 1080L1920 912L1672.7 939Z" fill="#0c2435" stroke="#0c2435"></path><path d="M0 900L0 1080L218.3 919Z" fill="#112e42" stroke="#112e42"></path><path d="M1701.7 1080L1920 1080L1920 912Z" fill="#297ea6" stroke="#297ea6"></path></g></svg>